name Walk4.mot
datacolumns 19
datarows 15
range 2.75500000 2.82500000
endheader

                time	   L_ground_force_vx	   L_ground_force_vy	   L_ground_force_vz	   L_ground_force_px	   L_ground_force_py	   L_ground_force_pz	   R_ground_force_vx	   R_ground_force_vy	   R_ground_force_vz	   R_ground_force_px	   R_ground_force_py	   R_ground_force_pz	   L_ground_torque_x	   L_ground_torque_y	   L_ground_torque_z	   R_ground_torque_x	   R_ground_torque_y	   R_ground_torque_z	
          2.75500000	          3.44159438	         44.17281996	         -6.02926039	         -0.16514985	          0.00000000	         -0.03124609	         -0.00000000	          0.00000000	          0.00000000	          0.00000000	          0.00000000	          0.00000000	          0.00000000	          0.01329498	          0.00000000	          0.00000000	          0.00000000	          0.00000000	
          2.76000000	          3.69492878	         65.22429628	         -7.98911521	         -0.21401558	          0.00000000	         -0.04074038	         -0.00000000	          0.00000000	          0.00000000	          0.00000000	          0.00000000	          0.00000000	          0.00000000	          0.02666319	          0.00000000	          0.00000000	          0.00000000	          0.00000000	
          2.76500000	          3.63378559	         90.00981821	        -10.06046010	         -0.26387900	          0.00000000	         -0.05053146	         -0.00000000	          0.00000000	          0.00000000	          0.00000000	          0.00000000	          0.00000000	          0.00000000	          0.04422214	          0.00000000	          0.00000000	          0.00000000	          0.00000000	
          2.77000000	          3.07505188	        117.65730303	        -12.06629068	         -0.31057655	          0.00000000	         -0.05984180	         -0.00000000	          0.00000000	          0.00000000	          0.00000000	          0.00000000	          0.00000000	          0.00000000	          0.06613430	          0.00000000	          0.00000000	          0.00000000	          0.00000000	
          2.77500000	          1.75908322	        146.97409527	        -13.80135429	         -0.35128127	          0.00000000	         -0.06814680	         -0.00000000	          0.00000000	          0.00000000	          0.00000000	          0.00000000	          0.00000000	          0.00000000	          0.09185085	          0.00000000	          0.00000000	          0.00000000	          0.00000000	
          2.78000000	         -0.60826386	        176.93583955	        -15.06522569	         -0.38460674	          0.00000000	         -0.07520616	          0.00000000	          0.00000000	          0.00000000	          0.00000000	          0.00000000	          0.00000000	          0.00000000	          0.11970564	          0.00000000	          0.00000000	          0.00000000	          0.00000000	
          2.78500000	         -4.25304892	        206.92279505	        -15.67274087	         -0.41020904	          0.00000000	         -0.08098082	          0.00000000	          0.00000000	         -0.00000000	         -0.00000000	          0.00000000	         -0.00000000	          0.00000000	          0.14697392	          0.00000000	          0.00000000	          0.00000000	          0.00000000	
          2.79000000	         -9.26206324	        236.58289853	        -15.46686532	         -0.42845134	          0.00000000	         -0.08555768	          0.00000000	          0.00000000	         -0.00000000	         -0.00000000	          0.00000000	         -0.00000000	          0.00000000	          0.16950835	          0.00000000	          0.00000000	          0.00000000	          0.00000000	
          2.79500000	        -15.55566038	        265.62870795	        -14.33678601	         -0.44013567	          0.00000000	         -0.08908811	          0.00000000	         -0.00000000	         -0.00000000	         -0.00000000	          0.00000000	         -0.00000000	          0.00000000	          0.18180810	          0.00000000	          0.00000000	          0.00000000	          0.00000000	
          2.80000000	        -22.88220323	        293.78831657	        -12.23404476	         -0.44630396	          0.00000000	         -0.09174556	          0.00000000	         -0.00000000	         -0.00000000	         -0.00000000	          0.00000000	         -0.00000000	          0.00000000	          0.17784706	          0.00000000	          0.00000000	          0.00000000	          0.00000000	
          2.80500000	        -30.86361546	        320.85021234	         -9.18559242	         -0.44808770	          0.00000000	         -0.09370196	          0.00000000	         -0.00000001	         -0.00000000	         -0.00000000	          0.00000000	         -0.00000000	          0.00000000	          0.15324235	          0.00000000	          0.00000000	          0.00000000	          0.00000000	
          2.81000000	        -39.10222711	        346.64939255	         -5.29885318	         -0.44659558	          0.00000000	         -0.09511451	          0.00000000	         -0.00000001	         -0.00000000	         -0.00000000	          0.00000000	         -0.00000000	          0.00000000	          0.10824508	          0.00000000	          0.00000000	          0.00000000	          0.00000000	
          2.81500000	        -47.28274851	        370.98028212	         -0.74570278	         -0.44284218	          0.00000000	         -0.09611517	          0.00000000	         -0.00000002	         -0.00000000	         -0.00000000	          0.00000000	         -0.00000000	          0.00000000	          0.04838283	          0.00000000	          0.00000000	         -0.00000000	          0.00000000	
          2.82000000	        -55.21114331	        393.61751555	          4.26493736	         -0.43769165	          0.00000000	         -0.09681010	          0.00000000	         -0.00000003	         -0.00000000	         -0.00000000	          0.00000000	         -0.00000000	          0.00000000	         -0.01619304	          0.00000000	          0.00000000	         -0.00000000	          0.00000000	
          2.82500000	        -62.79175233	        414.51549372	          9.51713275	         -0.43182761	          0.00000000	         -0.09728312	          0.00000000	         -0.00000004	         -0.00000001	         -0.00000000	          0.00000000	         -0.00000000	          0.00000000	         -0.07239777	          0.00000000	          0.00000000	         -0.00000000	          0.00000000	
